<svg width="92" height="32" viewBox="0 0 92 32" fill="none" xmlns="http://www.w3.org/2000/svg">
<path d="M16.074 1.32845C16.1073 1.36065 16.1402 1.39322 16.1727 1.42624C16.1844 1.43693 16.1961 1.44762 16.2081 1.45863C16.3229 1.56588 16.4061 1.68476 16.4888 1.81738C16.5023 1.83858 16.5158 1.85979 16.5297 1.88163C16.7402 2.22664 16.854 2.62787 16.8642 3.02993C16.8647 3.04836 16.8653 3.06679 16.8659 3.08577C16.8667 3.13898 16.8657 3.19187 16.8642 3.24506C16.8638 3.26641 16.8635 3.28776 16.8632 3.30977C16.8485 3.69402 16.7219 4.05835 16.5345 4.39258C16.4576 4.53217 16.3959 4.67826 16.3322 4.82404C16.2756 4.95289 16.2162 5.07919 16.1514 5.20412C16.0986 5.30661 16.0508 5.411 16.0036 5.51614C15.9425 5.65219 15.8784 5.78573 15.8103 5.91851C15.7584 6.02104 15.71 6.12516 15.6614 6.22929C15.6361 6.28334 15.6107 6.33733 15.5853 6.39132C15.4884 6.59755 15.3917 6.8039 15.2961 7.01073C15.2887 7.02667 15.2813 7.0426 15.2737 7.05902C15.2375 7.13734 15.2013 7.21568 15.1652 7.29406C15.0934 7.44957 15.0193 7.60337 14.9414 7.756C14.8861 7.86559 14.8343 7.97671 14.7825 8.08791C14.7713 8.11182 14.7601 8.13574 14.7489 8.15965C14.6759 8.31573 14.6045 8.47243 14.5338 8.6295C14.482 8.74388 14.4261 8.85552 14.3686 8.96722C14.3325 9.03993 14.2998 9.11358 14.2676 9.188C14.2107 9.31923 14.1482 9.44666 14.0824 9.57372C14.025 9.6863 13.9721 9.80109 13.9185 9.91548C13.8918 9.97262 13.8649 10.0297 13.838 10.0868C13.8276 10.1089 13.8172 10.131 13.8064 10.1538C13.6991 10.3818 13.5912 10.6096 13.4828 10.8372C13.3577 11.0999 13.2343 11.3632 13.1125 11.6275C13.0342 11.7972 12.9536 11.9657 12.8714 12.1336C12.8532 12.1708 12.835 12.2079 12.8168 12.245C12.8107 12.2574 12.8047 12.2698 12.7984 12.2825C12.7009 12.4819 12.6074 12.6828 12.5166 12.8852C12.4457 13.0424 12.3707 13.1976 12.2948 13.3525C12.2704 13.4022 12.246 13.4519 12.2217 13.5016C12.2156 13.5141 12.2094 13.5266 12.2031 13.5394C12.1352 13.6781 12.0679 13.8169 12.0068 13.9587C11.9579 14.0723 11.9039 14.1822 11.8473 14.2921C11.7826 14.419 11.725 14.5486 11.6672 14.6786C11.5946 14.8419 11.5189 15.0036 11.4369 15.1626C11.3453 15.3402 11.2642 15.5218 11.1832 15.7043C11.1232 15.8389 11.0607 15.9714 10.9928 16.1023C10.9445 16.1959 10.9011 16.2912 10.8586 16.3875C10.8025 16.5145 10.7427 16.6389 10.6794 16.7625C10.5812 16.9545 10.4918 17.1501 10.4042 17.347C10.348 17.4732 10.2879 17.5966 10.2247 17.7195C10.1763 17.8153 10.1325 17.9131 10.0881 18.0107C10.0338 18.1301 9.97897 18.2486 9.91895 18.3652C9.84625 18.5066 9.78144 18.6512 9.71608 18.7961C9.63699 18.9713 9.5544 19.1448 9.46975 19.3174C9.44539 19.3671 9.42103 19.4168 9.39667 19.4665C9.39056 19.479 9.38444 19.4915 9.37814 19.5043C9.30391 19.6559 9.23157 19.8079 9.16476 19.9629C9.12104 20.0638 9.07196 20.1614 9.02156 20.2592C8.98999 20.321 8.96002 20.3835 8.93034 20.4462C8.69464 20.9441 8.39419 21.3655 8.01381 21.7657C8.00163 21.7786 7.98946 21.7915 7.97692 21.8048C7.8787 21.9055 7.76877 21.9916 7.65821 22.0786C7.63934 22.094 7.62047 22.1093 7.60103 22.1251C6.88867 22.69 6.01187 22.9824 5.10361 22.9832C5.08873 22.9832 5.07385 22.9832 5.05852 22.9832C4.8143 22.9829 4.57911 22.9684 4.33933 22.9196C4.31437 22.9147 4.31437 22.9147 4.28892 22.9097C3.89683 22.8314 3.52494 22.6981 3.17377 22.5089C3.16207 22.5028 3.15038 22.4966 3.13834 22.4903C2.65821 22.2375 2.21815 21.8617 1.88967 21.4332C1.87437 21.4135 1.85906 21.3938 1.8433 21.3735C1.61635 21.0743 1.44182 20.7486 1.31202 20.3978C1.29973 20.3649 1.28664 20.3323 1.27333 20.2998C1.20012 20.1179 1.1608 19.9228 1.11922 19.7318C1.11426 19.7114 1.11426 19.7114 1.10919 19.6906C1.07848 19.5558 1.07396 19.4265 1.07446 19.2887C1.07442 19.2655 1.07439 19.2424 1.07435 19.2186C1.07432 19.1699 1.07439 19.1213 1.07456 19.0726C1.07477 18.9986 1.07456 18.9246 1.07431 18.8506C1.07433 18.8031 1.07438 18.7556 1.07446 18.7081C1.07434 18.6752 1.07434 18.6752 1.07422 18.6417C1.075 18.5112 1.08862 18.3918 1.11922 18.265C1.12357 18.2443 1.12791 18.2236 1.13239 18.2023C1.1949 17.9156 1.26663 17.6382 1.37604 17.3654C1.38189 17.3507 1.38773 17.336 1.39376 17.3208C1.5741 16.8756 1.8565 16.4795 2.14233 16.0951C2.29982 15.8802 2.4514 15.661 2.60287 15.4419C2.65967 15.36 2.71753 15.2788 2.77619 15.1982C2.86498 15.076 2.95076 14.952 3.03632 14.8276C3.1075 14.7243 3.17967 14.6218 3.25279 14.5198C3.33633 14.4033 3.41846 14.2858 3.49973 14.1678C3.59982 14.0224 3.70157 13.8782 3.80431 13.7347C4.05515 13.3841 4.30254 13.0311 4.54923 12.6777C4.61024 12.5903 4.67173 12.5033 4.73337 12.4163C4.74513 12.3997 4.75689 12.3831 4.769 12.366C4.78076 12.3495 4.79252 12.3329 4.80464 12.3158C4.88663 12.1999 4.96759 12.0833 5.04805 11.9663C5.12606 11.853 5.20542 11.741 5.28758 11.6305C5.33563 11.5647 5.38204 11.4979 5.42834 11.431C5.51203 11.3099 5.59643 11.1893 5.68145 11.0692C5.69317 11.0526 5.70488 11.036 5.71695 11.019C5.78163 10.9276 5.84657 10.8365 5.9117 10.7455C6.01654 10.599 6.11952 10.4513 6.22163 10.3029C6.28539 10.2104 6.35003 10.1186 6.4161 10.0277C6.54558 9.84957 6.6702 9.66811 6.795 9.48671C6.89647 9.33933 6.99824 9.19261 7.10506 9.04896C7.16263 8.97016 7.21788 8.88983 7.27335 8.80958C7.38201 8.65254 7.49251 8.49679 7.60293 8.34097C7.67244 8.24283 7.74184 8.14462 7.81126 8.04641C7.86907 7.96463 7.92692 7.88288 7.98487 7.8012C8.10925 7.62575 8.23258 7.44967 8.35451 7.27254C8.43388 7.15744 8.51476 7.04348 8.59625 6.92985C8.66961 6.82734 8.74133 6.7238 8.81266 6.6199C8.89678 6.49746 8.98266 6.37656 9.07071 6.25687C9.169 6.12322 9.26427 5.98782 9.35816 5.85111C9.43674 5.73675 9.51641 5.62321 9.5967 5.51003C9.68166 5.39022 9.76618 5.27016 9.84981 5.14944C9.95022 5.00453 10.0513 4.86022 10.155 4.71752C10.2535 4.5817 10.3493 4.4442 10.4444 4.30598C10.5261 4.18748 10.6092 4.0701 10.693 3.9531C10.7589 3.86105 10.8238 3.76841 10.8882 3.67532C10.963 3.5671 11.0388 3.45962 11.1154 3.35262C11.2204 3.2059 11.3235 3.05799 11.4262 2.90966C11.5246 2.76752 11.6238 2.62599 11.7253 2.48599C11.8249 2.34865 11.9215 2.2094 12.018 2.06991C12.0855 1.9724 12.1533 1.87518 12.2217 1.77827C12.2344 1.76002 12.2471 1.74176 12.2602 1.72296C12.5825 1.26987 13.0284 0.928727 13.565 0.761294C13.5859 0.754462 13.6068 0.74763 13.6284 0.740591C14.4868 0.484802 15.4321 0.718248 16.074 1.32845Z" fill="#008ED0"/>
<path d="M22.1492 0.50006C22.1636 0.50004 22.1781 0.50002 22.1929 0.5C22.434 0.500222 22.6667 0.515684 22.9035 0.563495C22.9182 0.566419 22.9329 0.569344 22.9481 0.572358C23.0458 0.592336 23.1424 0.615658 23.2387 0.641568C23.2517 0.645034 23.2646 0.6485 23.278 0.652071C23.7409 0.778619 24.1744 1.00478 24.5599 1.28568C24.5717 1.29428 24.5835 1.30288 24.5957 1.31174C25.3386 1.85874 25.7923 2.58598 26.1675 3.40828C26.2178 3.51828 26.2687 3.628 26.3198 3.73768C26.3298 3.75921 26.3398 3.78075 26.3501 3.80293C26.411 3.93327 26.4743 4.06189 26.5401 4.18981C26.5823 4.27486 26.6198 4.36163 26.6576 4.44865C26.6943 4.53275 26.7337 4.61484 26.7758 4.69653C26.8328 4.80731 26.885 4.91963 26.936 5.03322C26.9974 5.1698 27.0617 5.30391 27.1301 5.43724C27.1819 5.53948 27.2302 5.6433 27.2787 5.74714C27.325 5.84631 27.3714 5.94541 27.4179 6.04452C27.4341 6.07919 27.4341 6.07919 27.4507 6.11457C27.5459 6.31773 27.6424 6.5203 27.739 6.72284C27.8297 6.91315 27.9188 7.10408 28.0061 7.29595C28.048 7.38777 28.0915 7.47835 28.1376 7.56818C28.2182 7.72518 28.2911 7.88561 28.3648 8.04584C28.4601 8.25267 28.5572 8.45865 28.6541 8.66474C28.6756 8.71045 28.697 8.75618 28.7183 8.80195C28.7779 8.92935 28.8391 9.05586 28.901 9.18215C28.9193 9.21955 28.9376 9.25694 28.9559 9.29434C28.962 9.30674 28.9681 9.31915 28.9744 9.33193C29.0529 9.49234 29.1292 9.65343 29.2011 9.81689C29.2493 9.92587 29.3026 10.0314 29.3572 10.1374C29.3938 10.2113 29.4272 10.2861 29.46 10.3618C29.5023 10.4594 29.5468 10.5549 29.5956 10.6497C29.6523 10.7601 29.7047 10.872 29.7558 10.9851C29.7633 11.0019 29.7709 11.0186 29.7787 11.0359C29.7899 11.0607 29.7899 11.0607 29.8013 11.086C29.8759 11.2513 29.952 11.4157 30.0353 11.577C30.131 11.7626 30.2165 11.9525 30.3014 12.1432C30.3649 12.2852 30.4321 12.4243 30.5029 12.5627C30.5457 12.6477 30.5848 12.7341 30.6234 12.8211C30.6844 12.9571 30.7488 13.0902 30.8171 13.2227C30.8599 13.3091 30.8982 13.3972 30.9365 13.4856C30.9736 13.5705 31.0135 13.6535 31.056 13.736C31.1093 13.8396 31.158 13.9443 31.2051 14.0507C31.2518 14.1563 31.3002 14.2603 31.353 14.363C31.4134 14.4805 31.4676 14.6 31.521 14.7207C31.5717 14.8346 31.627 14.9453 31.6841 15.0562C31.7203 15.1293 31.7532 15.2032 31.7856 15.278C31.8315 15.384 31.8806 15.4875 31.9335 15.5903C31.9905 15.701 32.0433 15.813 32.0937 15.9269C32.1382 16.0275 32.1838 16.1268 32.2342 16.2246C32.3098 16.3718 32.3794 16.5217 32.4493 16.6716C32.5251 16.8339 32.6019 16.9956 32.6803 17.1566C32.7515 17.3029 32.8198 17.4501 32.8856 17.5989C32.9349 17.7097 32.9891 17.8173 33.0446 17.9253C33.0812 17.9992 33.1146 18.074 33.1474 18.1496C33.1894 18.2464 33.2334 18.3412 33.2818 18.4351C33.3519 18.5714 33.4153 18.7105 33.4786 18.8501C33.5256 18.9531 33.5744 19.0544 33.6268 19.1548C33.7361 19.368 33.8082 19.5968 33.8672 19.8282C33.8707 19.842 33.8743 19.8557 33.878 19.8699C33.9119 20.0152 33.9125 20.1578 33.9115 20.3064C33.9117 20.3309 33.9118 20.3554 33.912 20.3806C33.9117 20.5204 33.902 20.6491 33.8672 20.7846C33.8633 20.8006 33.8594 20.8165 33.8554 20.833C33.7948 21.074 33.7135 21.2903 33.5911 21.5068C33.5797 21.5278 33.5683 21.5489 33.5566 21.5705C33.244 22.1292 32.695 22.5265 32.0826 22.706C31.8908 22.7588 31.6994 22.7842 31.5009 22.795C31.4816 22.7962 31.4624 22.7973 31.4425 22.7985C31.3892 22.8 31.3372 22.7982 31.284 22.795C31.2711 22.7943 31.2582 22.7936 31.2449 22.7929C30.646 22.7569 30.1065 22.5116 29.667 22.1119C29.6496 22.0962 29.6322 22.0806 29.6143 22.0645C29.4797 21.9379 29.3763 21.7946 29.2727 21.6434C29.2528 21.6147 29.2329 21.5859 29.213 21.5572C29.1808 21.5108 29.1488 21.4643 29.1167 21.4178C29.0281 21.2891 28.9381 21.1614 28.8477 21.0338C28.7581 20.9075 28.669 20.7808 28.58 20.6541C28.4778 20.5084 28.375 20.3633 28.2715 20.2186C28.1977 20.1152 28.1251 20.0111 28.0529 19.9066C27.9774 19.7975 27.9003 19.6895 27.823 19.5815C27.7465 19.4744 27.6713 19.3665 27.5965 19.2582C27.54 19.1766 27.4825 19.0959 27.424 19.0157C27.3246 18.8792 27.2294 18.7399 27.1339 18.6007C27.0566 18.4881 26.9781 18.3766 26.8977 18.2662C26.8294 18.1722 26.7632 18.0769 26.6971 17.9814C26.6114 17.8575 26.5243 17.7346 26.4372 17.6117C26.3637 17.508 26.291 17.4039 26.2187 17.2993C26.1607 17.2155 26.1021 17.1323 26.0412 17.0505C25.9576 16.9378 25.8783 16.8223 25.7988 16.7067C25.722 16.595 25.644 16.484 25.5655 16.3734C25.427 16.1779 25.2886 15.9824 25.1523 15.7853C25.0774 15.6772 25.001 15.5701 24.9244 15.4631C24.8571 15.369 24.7908 15.2743 24.725 15.1792C24.6587 15.0832 24.5915 14.988 24.5229 14.8937C24.4343 14.7718 24.3487 14.6481 24.2633 14.524C24.1819 14.4058 24.099 14.2887 24.0153 14.172C23.9487 14.0789 23.883 13.9851 23.8179 13.8909C23.7516 13.795 23.6845 13.6998 23.6158 13.6055C23.5262 13.4823 23.4397 13.357 23.3534 13.2315C23.29 13.1394 23.2257 13.0481 23.1598 12.9577C23.0705 12.835 22.9841 12.7104 22.8981 12.5853C22.822 12.4746 22.7446 12.3647 22.6669 12.255C22.6439 12.2225 22.6208 12.19 22.5978 12.1575C22.5865 12.1413 22.5751 12.1252 22.5633 12.1087C22.5288 12.0599 22.4943 12.0111 22.4598 11.9623C22.4484 11.9462 22.4371 11.9301 22.4253 11.9135C22.4023 11.8809 22.3792 11.8482 22.3561 11.8156C22.2996 11.7357 22.2431 11.6558 22.1865 11.576C22.07 11.4116 21.9541 11.2469 21.8395 11.0812C21.7751 10.9884 21.7097 10.8964 21.6439 10.8046C21.5598 10.687 21.477 10.5687 21.395 10.4496C21.2951 10.3045 21.1935 10.1606 21.091 10.0174C20.8243 9.64482 20.5603 9.27028 20.3006 8.89299C20.2235 8.781 20.145 8.67042 20.0638 8.56125C20.0074 8.48407 19.9532 8.40543 19.8989 8.32682C19.7144 8.06028 19.5276 7.7954 19.339 7.53176C19.2548 7.41384 19.172 7.29494 19.0897 7.17575C19.0574 7.1291 19.0248 7.08268 18.9918 7.03653C18.8808 6.88058 18.778 6.7219 18.6837 6.55566C18.6758 6.54192 18.6679 6.52818 18.6599 6.51403C18.3155 5.90163 18.1672 5.21892 18.1673 4.52307C18.1673 4.47242 18.1669 4.42177 18.1665 4.37112C18.1656 4.0895 18.1854 3.81421 18.2548 3.54006C18.2612 3.51433 18.2612 3.51433 18.2677 3.48807C18.3102 3.32232 18.3634 3.16211 18.4273 3.0033C18.4329 2.98941 18.4384 2.97551 18.4442 2.96119C18.6386 2.48353 18.9349 2.06501 19.2949 1.69556C19.3114 1.67803 19.3279 1.66049 19.3449 1.64242C19.572 1.40712 19.8429 1.21963 20.1231 1.05146C20.1451 1.03805 20.1672 1.02463 20.1898 1.01082C20.3644 0.907876 20.5442 0.829001 20.7344 0.758679C20.7499 0.752864 20.7655 0.747049 20.7815 0.741057C21.2228 0.578178 21.6793 0.500505 22.1492 0.50006Z" fill="#008ED0"/>
<path d="M29.0086 23.4099C29.0495 23.447 29.0914 23.4821 29.134 23.5171C29.1527 23.5336 29.1714 23.5501 29.1907 23.5672C29.1907 23.5801 29.1907 23.593 29.1907 23.6063C29.2037 23.6063 29.2168 23.6063 29.2302 23.6063C29.4491 23.8178 29.6293 24.0887 29.7823 24.3492C29.7995 24.3763 29.7995 24.3763 29.817 24.4039C29.9835 24.6716 30.0887 24.9674 30.1767 25.268C30.1814 25.2827 30.1861 25.2974 30.191 25.3125C30.3905 25.9403 30.3687 26.667 30.2161 27.3013C30.2124 27.3176 30.2087 27.334 30.2049 27.3508C30.0868 27.8696 29.8284 28.3464 29.5062 28.7675C29.4936 28.7842 29.4809 28.8009 29.4679 28.8182C29.3901 28.9176 29.3061 29.011 29.2203 29.1035C29.21 29.1147 29.1997 29.1258 29.1891 29.1373C28.8603 29.487 28.4423 29.7587 28.0076 29.9601C27.9947 29.9661 27.9819 29.9721 27.9686 29.9783C27.6734 30.1147 27.3672 30.2183 27.0479 30.283C27.0166 30.2894 26.9854 30.2962 26.9542 30.3033C26.3311 30.4437 25.6772 30.376 25.0489 30.3069C24.9072 30.2915 24.7655 30.2807 24.6233 30.2717C24.4372 30.2595 24.2518 30.2437 24.0662 30.2252C23.8466 30.2035 23.6269 30.1846 23.4069 30.1678C23.0986 30.1443 22.7906 30.1186 22.4825 30.0921C22.1378 30.0623 21.7931 30.033 21.4483 30.0043C21.4308 30.0028 21.4133 30.0014 21.3952 29.9999C21.3239 29.994 21.2525 29.988 21.1812 29.9821C20.1669 29.8977 20.1669 29.8977 19.6915 29.8541C19.3265 29.8206 18.9612 29.7907 18.5959 29.7608C18.3422 29.74 18.0886 29.7187 17.835 29.6974C17.7985 29.6943 17.7985 29.6943 17.7613 29.6912C17.3685 29.6582 16.9758 29.6247 16.583 29.591C16.2492 29.5623 15.9153 29.5344 15.5814 29.5071C15.1816 29.4743 14.7819 29.4397 14.3822 29.405C13.9701 29.3693 13.5579 29.3343 13.1456 29.3011C12.9784 29.2876 12.8115 29.273 12.6446 29.256C12.4677 29.238 12.2907 29.2238 12.1134 29.2109C11.8832 29.1942 11.6533 29.177 11.4239 29.1526C11.2938 29.1391 11.1636 29.1298 11.0331 29.1207C10.8376 29.1069 10.6427 29.0899 10.4477 29.0706C10.2576 29.0518 10.0677 29.0349 9.8771 29.0217C9.687 29.0084 9.49739 28.9922 9.30771 28.974C9.09069 28.9533 8.8736 28.9346 8.65623 28.9178C8.60892 28.9142 8.56161 28.9104 8.5143 28.9067C8.37171 28.8956 8.22912 28.8847 8.08643 28.8748C7.31792 28.8212 6.67164 28.6646 6.09966 28.1224C6.08639 28.1104 6.07312 28.0985 6.05945 28.0862C5.61757 27.6752 5.37957 27.0521 5.35033 26.4606C5.34952 26.4443 5.34871 26.4281 5.34787 26.4113C5.3314 25.7306 5.6059 25.091 6.07387 24.6015C6.20759 24.4659 6.35283 24.3535 6.51376 24.2514C6.52497 24.2443 6.53617 24.2372 6.54772 24.2298C6.72372 24.1198 6.90683 24.0391 7.10533 23.9777C7.12472 23.9715 7.1441 23.9652 7.16407 23.9588C7.40085 23.8886 7.64137 23.8706 7.8867 23.8494C7.93241 23.8453 7.97811 23.8411 8.02382 23.837C8.33649 23.8086 8.64937 23.7827 8.96238 23.7584C9.10023 23.7477 9.2379 23.7359 9.37549 23.7223C9.52447 23.7076 9.67354 23.6962 9.82287 23.6857C10.0351 23.6707 10.2468 23.652 10.4585 23.6317C10.6392 23.6145 10.82 23.5993 11.0011 23.5867C11.1916 23.5735 11.3816 23.5566 11.5717 23.5378C11.7618 23.519 11.9518 23.5022 12.1423 23.489C12.346 23.4748 12.549 23.457 12.7522 23.4376C12.9902 23.4149 13.2283 23.3953 13.4666 23.3765C13.6411 23.3627 13.8155 23.3485 13.9898 23.3313C14.1387 23.3166 14.2878 23.3052 14.4371 23.2947C14.6321 23.2809 14.8267 23.2643 15.0213 23.2458C15.2414 23.2249 15.4616 23.2052 15.6819 23.1872C15.6962 23.186 15.7106 23.1848 15.7253 23.1836C15.8948 23.1697 16.0643 23.1561 16.2338 23.1425C16.3378 23.1342 16.4418 23.1259 16.5459 23.1175C16.5771 23.115 16.5771 23.115 16.6089 23.1125C16.8832 23.0904 17.1572 23.0667 17.4311 23.0407C17.6417 23.0207 17.8525 23.003 18.0634 22.9858C18.0941 22.9833 18.1248 22.9808 18.1555 22.9783C18.1715 22.977 18.1874 22.9757 18.2038 22.9744C18.4466 22.9545 18.6892 22.9339 18.9319 22.9135C19.5035 22.8653 19.5035 22.8653 19.7491 22.8452C19.7664 22.8438 19.7837 22.8424 19.8015 22.8409C19.8365 22.838 19.8715 22.8352 19.9066 22.8323C20.4373 22.7888 20.9679 22.7432 21.4984 22.6978C22.0096 22.6541 22.5208 22.611 23.0322 22.5692C23.3573 22.5425 23.6822 22.5144 24.0071 22.4846C24.2859 22.459 24.5649 22.4358 24.844 22.4139C25.0031 22.4013 25.162 22.3878 25.3208 22.3722C26.6618 22.2429 27.989 22.4767 29.0086 23.4099Z" fill="#008ED0"/>
<path d="M15.4904 1.51028C15.5248 1.54351 15.5588 1.57713 15.5924 1.6112C15.6045 1.62224 15.6165 1.63327 15.629 1.64464C15.7475 1.75533 15.8334 1.87802 15.9188 2.0149C15.9327 2.03679 15.9467 2.05867 15.961 2.08121C16.1784 2.4373 16.296 2.85141 16.3064 3.26637C16.307 3.28539 16.3076 3.30441 16.3082 3.32401C16.309 3.37893 16.308 3.43351 16.3064 3.48841C16.3061 3.51045 16.3057 3.53249 16.3054 3.55519C16.2903 3.95178 16.1595 4.32781 15.966 4.67277C15.8866 4.81684 15.8229 4.96761 15.7571 5.11808C15.6987 5.25106 15.6373 5.38142 15.5704 5.51036C15.5158 5.61614 15.4664 5.72387 15.4177 5.83239C15.3546 5.97282 15.2884 6.11064 15.2181 6.24768C15.1645 6.3535 15.1145 6.46097 15.0643 6.56843C15.0382 6.62422 15.012 6.67995 14.9858 6.73567C14.8856 6.94852 14.7858 7.16149 14.6871 7.37497C14.6795 7.39141 14.6718 7.40786 14.664 7.4248C14.6266 7.50564 14.5892 7.58649 14.5519 7.66738C14.4778 7.82789 14.4012 7.98663 14.3208 8.14416C14.2637 8.25726 14.2102 8.37195 14.1566 8.48672C14.1451 8.5114 14.1335 8.53608 14.122 8.56077C14.0466 8.72185 13.9728 8.88358 13.8998 9.0457C13.8463 9.16375 13.7886 9.27897 13.7292 9.39425C13.692 9.4693 13.6582 9.54531 13.6249 9.62212C13.5662 9.75757 13.5016 9.88908 13.4337 10.0202C13.3744 10.1364 13.3198 10.2549 13.2645 10.373C13.2368 10.4319 13.209 10.4908 13.1813 10.5498C13.1705 10.5726 13.1598 10.5954 13.1487 10.6189C13.0378 10.8543 12.9264 11.0894 12.8145 11.3242C12.6853 11.5954 12.5578 11.8672 12.432 12.1399C12.3512 12.3151 12.268 12.489 12.183 12.6623C12.1643 12.7006 12.1455 12.739 12.1267 12.7773C12.1204 12.7901 12.1142 12.8028 12.1077 12.816C12.007 13.0217 11.9105 13.2291 11.8166 13.438C11.7435 13.6003 11.666 13.7605 11.5876 13.9203C11.5624 13.9716 11.5372 14.0229 11.5121 14.0742C11.5058 14.0871 11.4994 14.1 11.4929 14.1132C11.4228 14.2564 11.3533 14.3996 11.2902 14.546C11.2397 14.6632 11.1839 14.7766 11.1255 14.8901C11.0586 15.021 10.9991 15.1548 10.9395 15.289C10.8645 15.4576 10.7863 15.6245 10.7016 15.7885C10.6071 15.9718 10.5233 16.1592 10.4396 16.3476C10.3776 16.4865 10.3132 16.6233 10.2431 16.7584C10.1932 16.855 10.1483 16.9533 10.1044 17.0527C10.0465 17.1838 9.9847 17.3122 9.91934 17.4398C9.81799 17.6379 9.72558 17.8398 9.63516 18.0431C9.57717 18.1733 9.51509 18.3007 9.44979 18.4275C9.39984 18.5264 9.35457 18.6273 9.30873 18.7281C9.25269 18.8513 9.19602 18.9736 9.13405 19.0939C9.05897 19.2399 8.99203 19.3891 8.92453 19.5386C8.84286 19.7195 8.75757 19.8985 8.67015 20.0767C8.64499 20.128 8.61984 20.1793 8.59468 20.2306C8.58837 20.2435 8.58205 20.2564 8.57554 20.2696C8.49888 20.4261 8.42418 20.5829 8.35518 20.7429C8.31003 20.847 8.25935 20.9478 8.20729 21.0487C8.1747 21.1125 8.14375 21.177 8.1131 21.2417C7.86968 21.7556 7.5594 22.1906 7.16658 22.6036C7.15401 22.6169 7.14144 22.6302 7.12849 22.6439C7.02705 22.7478 6.91353 22.8368 6.79935 22.9266C6.77987 22.9424 6.76038 22.9582 6.7403 22.9745C6.00464 23.5575 5.09916 23.8594 4.16119 23.8601C4.14583 23.8601 4.13046 23.8601 4.11463 23.8602C3.86242 23.8598 3.61954 23.8449 3.37191 23.7945C3.34614 23.7895 3.34614 23.7895 3.31985 23.7843C2.91494 23.7035 2.53088 23.5659 2.16822 23.3706C2.15615 23.3643 2.14408 23.358 2.13163 23.3514C1.63581 23.0905 1.18135 22.7026 0.842129 22.2605C0.826324 22.2401 0.810518 22.2198 0.794234 22.1988C0.559866 21.89 0.379628 21.5538 0.245576 21.1917C0.232887 21.1578 0.219368 21.1241 0.20562 21.0906C0.130016 20.9028 0.0894157 20.7015 0.0464723 20.5044C0.0413478 20.4833 0.0413478 20.4833 0.0361197 20.4619C0.00439907 20.3228 -0.000269356 20.1893 0.000250286 20.047C0.000211249 20.0232 0.000172212 19.9993 0.000131992 19.9747C0.000104369 19.9245 0.00017865 19.8743 0.000349903 19.8241C0.000568411 19.7476 0.000351482 19.6713 9.09e-05 19.5949C0.000117865 19.5458 0.000170148 19.4968 0.000250286 19.4478C0.000126395 19.4139 0.000126395 19.4139 0 19.3793C0.000803239 19.2446 0.0148746 19.1214 0.0464723 18.9905C0.0509612 18.9691 0.0554501 18.9478 0.060075 18.9258C0.124629 18.6299 0.1987 18.3436 0.311691 18.062C0.31773 18.0468 0.323769 18.0316 0.329991 18.016C0.516233 17.5565 0.807869 17.1477 1.10304 16.7509C1.26569 16.5291 1.42223 16.3029 1.57865 16.0768C1.63731 15.9922 1.69707 15.9085 1.75764 15.8252C1.84934 15.6992 1.93792 15.5711 2.02628 15.4428C2.09979 15.3361 2.17432 15.2303 2.24983 15.1251C2.33611 15.0048 2.42092 14.8836 2.50485 14.7617C2.60821 14.6117 2.71329 14.4629 2.8194 14.3147C3.07844 13.953 3.33392 13.5886 3.58868 13.2239C3.65169 13.1337 3.71519 13.0438 3.77884 12.9541C3.79099 12.937 3.80313 12.9198 3.81564 12.9022C3.82779 12.8851 3.83993 12.8679 3.85244 12.8503C3.93712 12.7307 4.02072 12.6104 4.10381 12.4897C4.18437 12.3726 4.26633 12.2571 4.35118 12.143C4.4008 12.0752 4.44873 12.0062 4.49654 11.9371C4.58297 11.8121 4.67013 11.6877 4.75793 11.5637C4.77003 11.5466 4.78213 11.5295 4.7946 11.5119C4.8614 11.4176 4.92845 11.3235 4.99571 11.2296C5.10399 11.0784 5.21033 10.926 5.31578 10.7728C5.38163 10.6773 5.44838 10.5826 5.51661 10.4888C5.65033 10.3049 5.77903 10.1176 5.90791 9.93042C6.01269 9.77831 6.1178 9.62688 6.22811 9.47862C6.28756 9.39729 6.34462 9.31439 6.40191 9.23156C6.51411 9.06947 6.62824 8.90873 6.74226 8.7479C6.81405 8.64662 6.88572 8.54525 6.95741 8.44389C7.01711 8.35948 7.07685 8.27511 7.1367 8.1908C7.26515 8.00972 7.39251 7.82799 7.51843 7.64517C7.6004 7.52638 7.68392 7.40876 7.76808 7.29149C7.84384 7.18568 7.9179 7.07882 7.99156 6.97158C8.07844 6.84522 8.16713 6.72044 8.25806 6.5969C8.35957 6.45896 8.45795 6.31922 8.55491 6.17811C8.63606 6.06009 8.71834 5.9429 8.80125 5.82608C8.88899 5.70244 8.97628 5.57852 9.06264 5.45392C9.16634 5.30436 9.27076 5.15541 9.37777 5.00814C9.47954 4.86795 9.57852 4.72604 9.67672 4.58339C9.76104 4.46109 9.84687 4.33994 9.93344 4.21918C10.0015 4.12417 10.0685 4.02857 10.135 3.93248C10.2123 3.82079 10.2905 3.70986 10.3696 3.59943C10.478 3.448 10.5845 3.29534 10.6906 3.14225C10.7922 2.99554 10.8947 2.84947 10.9995 2.70498C11.1023 2.56323 11.2021 2.4195 11.3018 2.27553C11.3714 2.17489 11.4415 2.07455 11.5121 1.97453C11.5252 1.9557 11.5383 1.93686 11.5519 1.91745C11.8847 1.44981 12.3452 1.09772 12.8994 0.924914C12.921 0.917863 12.9426 0.910812 12.9648 0.903547C13.8513 0.639546 14.8276 0.880486 15.4904 1.51028Z" fill="#008ED0"/>
<path d="M21.7644 0.655335C21.7793 0.655315 21.7941 0.655294 21.8095 0.655273C22.0584 0.655502 22.2988 0.671461 22.5433 0.720806C22.5585 0.723825 22.5737 0.726844 22.5893 0.729954C22.6903 0.750573 22.79 0.774644 22.8895 0.801386C22.9029 0.804963 22.9163 0.80854 22.9301 0.812226C23.4081 0.942836 23.8558 1.17626 24.2539 1.46617C24.2661 1.47505 24.2783 1.48393 24.2908 1.49307C25.0581 2.05763 25.5266 2.80822 25.9141 3.65691C25.966 3.77044 26.0186 3.88369 26.0713 3.99689C26.0817 4.01911 26.092 4.04133 26.1027 4.06423C26.1655 4.19876 26.2309 4.3315 26.2989 4.46353C26.3424 4.55131 26.3812 4.64087 26.4202 4.73067C26.4581 4.81748 26.4988 4.9022 26.5422 4.98651C26.6011 5.10085 26.655 5.21677 26.7077 5.33401C26.7711 5.47498 26.8376 5.6134 26.9082 5.751C26.9617 5.85652 27.0116 5.96368 27.0616 6.07085C27.1094 6.1732 27.1574 6.27549 27.2053 6.37777C27.2221 6.41356 27.2221 6.41356 27.2392 6.45007C27.3376 6.65975 27.4372 6.86883 27.5369 7.07787C27.6306 7.27429 27.7227 7.47134 27.8128 7.66938C27.8561 7.76414 27.901 7.85763 27.9486 7.95034C28.0319 8.11238 28.1071 8.27796 28.1833 8.44335C28.2817 8.65681 28.382 8.8694 28.482 9.0821C28.5042 9.12928 28.5263 9.17648 28.5483 9.22373C28.6098 9.35521 28.673 9.48578 28.7369 9.61613C28.7559 9.65473 28.7748 9.69332 28.7937 9.73192C28.8 9.74472 28.8063 9.75753 28.8128 9.77072C28.8939 9.93628 28.9727 10.1025 29.0469 10.2712C29.0967 10.3837 29.1518 10.4927 29.2081 10.6021C29.2459 10.6783 29.2804 10.7556 29.3143 10.8336C29.358 10.9343 29.4039 11.033 29.4543 11.1307C29.5129 11.2447 29.567 11.3602 29.6197 11.477C29.6275 11.4943 29.6353 11.5115 29.6434 11.5293C29.6549 11.555 29.6549 11.555 29.6667 11.5811C29.7438 11.7517 29.8224 11.9214 29.9084 12.0879C30.0072 12.2794 30.0955 12.4754 30.1832 12.6722C30.2487 12.8187 30.3182 12.9623 30.3912 13.1052C30.4355 13.193 30.4759 13.2821 30.5157 13.3719C30.5787 13.5122 30.6453 13.6496 30.7157 13.7864C30.76 13.8756 30.7995 13.9664 30.8391 14.0577C30.8774 14.1454 30.9186 14.231 30.9625 14.3162C31.0175 14.423 31.0679 14.5311 31.1165 14.641C31.1647 14.75 31.2146 14.8573 31.2692 14.9633C31.3316 15.0845 31.3875 15.2079 31.4426 15.3325C31.495 15.45 31.5521 15.5643 31.6111 15.6788C31.6485 15.7542 31.6825 15.8305 31.7159 15.9076C31.7633 16.017 31.814 16.1239 31.8687 16.2299C31.9276 16.3443 31.9821 16.4599 32.0341 16.5774C32.0801 16.6812 32.1271 16.7837 32.1792 16.8847C32.2573 17.0366 32.3292 17.1912 32.4014 17.346C32.4796 17.5135 32.5589 17.6804 32.6399 17.8466C32.7135 17.9976 32.784 18.1495 32.8519 18.303C32.9028 18.4175 32.9588 18.5285 33.0161 18.6399C33.054 18.7162 33.0884 18.7934 33.1223 18.8715C33.1657 18.9713 33.2111 19.0692 33.261 19.1661C33.3335 19.3068 33.3989 19.4503 33.4644 19.5944C33.5129 19.7007 33.5633 19.8053 33.6174 19.9089C33.7302 20.1289 33.8047 20.3651 33.8656 20.6039C33.8693 20.6181 33.873 20.6323 33.8768 20.647C33.9118 20.797 33.9124 20.9441 33.9114 21.0975C33.9116 21.1227 33.9117 21.148 33.9119 21.174C33.9116 21.3184 33.9016 21.4512 33.8656 21.591C33.8616 21.6075 33.8576 21.624 33.8534 21.641C33.7909 21.8897 33.7069 22.1129 33.5805 22.3364C33.5687 22.3581 33.557 22.3798 33.5449 22.4022C33.222 22.9788 32.6551 23.3889 32.0227 23.5741C31.8245 23.6286 31.6269 23.6548 31.4219 23.666C31.402 23.6672 31.3821 23.6684 31.3616 23.6696C31.3066 23.6711 31.2529 23.6693 31.1979 23.666C31.1846 23.6652 31.1713 23.6645 31.1576 23.6638C30.5391 23.6266 29.9819 23.3735 29.5281 22.9609C29.5101 22.9448 29.4921 22.9286 29.4736 22.912C29.3346 22.7814 29.2279 22.6334 29.1208 22.4774C29.1003 22.4477 29.0797 22.4181 29.0592 22.3884C29.026 22.3405 28.9928 22.2926 28.9598 22.2446C28.8682 22.1117 28.7753 21.9799 28.6819 21.8483C28.5894 21.7179 28.4974 21.5871 28.4055 21.4563C28.3 21.306 28.1938 21.1562 28.0869 21.0068C28.0106 20.9002 27.9358 20.7926 27.8612 20.6849C27.7831 20.5722 27.7036 20.4607 27.6238 20.3493C27.5447 20.2388 27.4671 20.1274 27.3898 20.0156C27.3315 19.9314 27.272 19.8482 27.2117 19.7654C27.109 19.6245 27.0107 19.4807 26.9121 19.337C26.8322 19.2208 26.7512 19.1057 26.6681 18.9917C26.5976 18.8948 26.5292 18.7964 26.461 18.6978C26.3725 18.57 26.2826 18.4431 26.1926 18.3163C26.1167 18.2093 26.0416 18.1018 25.967 17.9939C25.9071 17.9073 25.8466 17.8215 25.7837 17.737C25.6973 17.6207 25.6154 17.5015 25.5333 17.3822C25.454 17.2669 25.3735 17.1524 25.2924 17.0383C25.1493 16.8365 25.0064 16.6346 24.8657 16.4313C24.7883 16.3197 24.7094 16.2091 24.6303 16.0987C24.5608 16.0016 24.4923 15.9038 24.4244 15.8056C24.3559 15.7066 24.2865 15.6084 24.2157 15.511C24.1242 15.3852 24.0358 15.2575 23.9476 15.1294C23.8635 15.0074 23.7779 14.8866 23.6915 14.7661C23.6227 14.67 23.5549 14.5733 23.4877 14.4761C23.4192 14.377 23.3498 14.2788 23.2789 14.1814C23.1864 14.0543 23.0971 13.925 23.0079 13.7955C22.9424 13.7005 22.876 13.6062 22.808 13.5129C22.7157 13.3862 22.6265 13.2576 22.5378 13.1286C22.4591 13.0142 22.3793 12.9008 22.2989 12.7877C22.2752 12.7541 22.2514 12.7205 22.2277 12.6869C22.2159 12.6703 22.2041 12.6537 22.192 12.6366C22.1564 12.5862 22.1207 12.5358 22.0851 12.4855C22.0734 12.4689 22.0616 12.4523 22.0495 12.4352C22.0257 12.4015 22.0018 12.3678 21.978 12.3341C21.9197 12.2517 21.8613 12.1692 21.8029 12.0868C21.6826 11.9172 21.5628 11.7472 21.4445 11.5762C21.378 11.4804 21.3105 11.3854 21.2426 11.2906C21.1556 11.1693 21.0701 11.0471 20.9855 10.9242C20.8823 10.7745 20.7774 10.626 20.6715 10.4781C20.3961 10.0937 20.1235 9.70708 19.8553 9.31769C19.7756 9.2021 19.6946 9.08797 19.6107 8.9753C19.5525 8.89563 19.4965 8.81447 19.4404 8.73334C19.2499 8.45825 19.057 8.18486 18.8622 7.91275C18.7752 7.79105 18.6898 7.66834 18.6047 7.54532C18.5714 7.49717 18.5378 7.44927 18.5037 7.40163C18.3891 7.24067 18.2829 7.0769 18.1854 6.90532C18.1773 6.89114 18.1692 6.87696 18.1609 6.86236C17.8053 6.2303 17.6521 5.52568 17.6522 4.80749C17.6522 4.75521 17.6518 4.70293 17.6514 4.65066C17.6504 4.35999 17.6708 4.07587 17.7425 3.79292C17.7491 3.76636 17.7491 3.76636 17.7559 3.73927C17.7997 3.56819 17.8547 3.40284 17.9207 3.23893C17.9264 3.22459 17.9322 3.21025 17.9381 3.19547C18.1389 2.70248 18.4449 2.27052 18.8167 1.88922C18.8337 1.87112 18.8507 1.85302 18.8683 1.83437C19.1028 1.59151 19.3826 1.39801 19.672 1.22443C19.6947 1.21059 19.7175 1.19675 19.7409 1.18249C19.9212 1.07624 20.1068 0.994835 20.3033 0.922256C20.3193 0.916254 20.3353 0.910252 20.3519 0.904069C20.8076 0.735961 21.2791 0.655795 21.7644 0.655335Z" fill="#008ED0"/>
<path d="M28.848 24.3007C28.8902 24.339 28.9335 24.3753 28.9775 24.4113C28.9968 24.4284 29.0162 24.4454 29.0361 24.463C29.0361 24.4763 29.0361 24.4897 29.0361 24.5034C29.0495 24.5034 29.063 24.5034 29.0768 24.5034C29.3029 24.7217 29.489 25.0013 29.647 25.2701C29.6647 25.2981 29.6647 25.2981 29.6828 25.3267C29.8548 25.6029 29.9634 25.9082 30.0543 26.2185C30.0592 26.2337 30.064 26.2488 30.069 26.2644C30.2751 26.9123 30.2526 27.6624 30.095 28.317C30.0912 28.3339 30.0874 28.3507 30.0835 28.3681C29.9615 28.9036 29.6947 29.3957 29.3619 29.8303C29.3488 29.8476 29.3358 29.8648 29.3223 29.8826C29.242 29.9852 29.1553 30.0816 29.0666 30.1771C29.056 30.1886 29.0454 30.2001 29.0344 30.212C28.6949 30.5729 28.2631 30.8534 27.8142 31.0612C27.8009 31.0674 27.7877 31.0735 27.774 31.0799C27.4692 31.2207 27.1529 31.3276 26.8232 31.3944C26.7908 31.4011 26.7586 31.4081 26.7264 31.4154C26.0829 31.5603 25.4076 31.4904 24.7588 31.4191C24.6124 31.4032 24.4661 31.3921 24.3192 31.3827C24.1271 31.3702 23.9356 31.3539 23.744 31.3348C23.5171 31.3124 23.2903 31.2928 23.063 31.2756C22.7447 31.2513 22.4266 31.2248 22.1085 31.1974C21.7525 31.1667 21.3965 31.1364 21.0404 31.1068C21.0223 31.1053 21.0042 31.1038 20.9856 31.1022C20.9119 31.0961 20.8382 31.09 20.7646 31.0839C19.7171 30.9968 19.7171 30.9968 19.2261 30.9517C18.8492 30.9172 18.472 30.8863 18.0947 30.8555C17.8327 30.834 17.5708 30.812 17.3089 30.79C17.2712 30.7869 17.2712 30.7869 17.2328 30.7836C16.8272 30.7496 16.4216 30.715 16.016 30.6802C15.6712 30.6507 15.3265 30.6218 14.9816 30.5936C14.5687 30.5597 14.1559 30.524 13.7431 30.4883C13.3176 30.4514 12.8919 30.4153 12.4661 30.381C12.2935 30.367 12.1211 30.352 11.9488 30.3344C11.7661 30.3159 11.5832 30.3013 11.4001 30.288C11.1625 30.2707 10.925 30.2529 10.6881 30.2278C10.5538 30.2138 10.4193 30.2042 10.2845 30.1948C10.0827 30.1806 9.88137 30.163 9.67999 30.1431C9.48369 30.1237 9.28749 30.1063 9.0907 30.0926C8.89439 30.079 8.69858 30.0622 8.50269 30.0434C8.27857 30.022 8.05438 30.0027 7.8299 29.9854C7.78104 29.9817 7.73218 29.9778 7.68333 29.974C7.53607 29.9625 7.38881 29.9513 7.24146 29.9411C6.44782 29.8857 5.78039 29.7241 5.1897 29.1645C5.176 29.1521 5.1623 29.1398 5.14818 29.1272C4.69185 28.7029 4.44606 28.0599 4.41587 27.4493C4.41503 27.4326 4.41419 27.4158 4.41332 27.3985C4.39631 26.6959 4.67979 26.0358 5.16307 25.5306C5.30116 25.3906 5.45115 25.2746 5.61735 25.1693C5.62892 25.1619 5.6405 25.1545 5.65242 25.147C5.83418 25.0334 6.02327 24.9501 6.22827 24.8868C6.24829 24.8803 6.26831 24.8738 6.28893 24.8672C6.53345 24.7948 6.78184 24.7762 7.0352 24.7543C7.0824 24.7501 7.1296 24.7458 7.1768 24.7415C7.4997 24.7122 7.82281 24.6855 8.14606 24.6604C8.28842 24.6494 8.4306 24.6372 8.57269 24.6232C8.72654 24.608 8.88048 24.5962 9.0347 24.5854C9.25385 24.5699 9.47247 24.5506 9.69113 24.5297C9.87777 24.5119 10.0644 24.4962 10.2515 24.4832C10.4482 24.4695 10.6444 24.4522 10.8407 24.4328C11.037 24.4134 11.2332 24.396 11.43 24.3823C11.6403 24.3677 11.85 24.3493 12.0599 24.3293C12.3056 24.3059 12.5515 24.2856 12.7976 24.2662C12.9778 24.252 13.158 24.2374 13.3379 24.2196C13.4917 24.2045 13.6457 24.1927 13.7999 24.1818C14.0013 24.1676 14.2022 24.1504 14.4032 24.1314C14.6305 24.1098 14.8578 24.0895 15.0854 24.0708C15.1002 24.0696 15.115 24.0684 15.1302 24.0671C15.3052 24.0528 15.4803 24.0387 15.6553 24.0248C15.7628 24.0162 15.8702 24.0076 15.9776 23.9989C16.0098 23.9964 16.0098 23.9964 16.0427 23.9937C16.3259 23.9709 16.6089 23.9465 16.8918 23.9196C17.1093 23.899 17.327 23.8808 17.5448 23.863C17.5765 23.8604 17.6082 23.8578 17.6399 23.8553C17.6564 23.8539 17.6728 23.8526 17.6898 23.8512C17.9405 23.8307 18.1911 23.8094 18.4416 23.7883C19.032 23.7386 19.032 23.7386 19.2856 23.7179C19.3035 23.7164 19.3214 23.7149 19.3398 23.7134C19.3759 23.7105 19.4121 23.7075 19.4482 23.7046C19.9963 23.6596 20.5442 23.6126 21.0922 23.5657C21.6201 23.5206 22.148 23.4761 22.6761 23.433C23.0118 23.4055 23.3474 23.3764 23.6829 23.3457C23.9708 23.3193 24.2589 23.2953 24.5472 23.2727C24.7115 23.2597 24.8756 23.2458 25.0396 23.2297C26.4245 23.0963 27.795 23.3375 28.848 24.3007Z" fill="#008ED0"/>
<path d="M61.2158 11.5838C61.2497 11.6108 61.2837 11.6377 61.3187 11.6654C61.4063 11.7361 61.4927 11.808 61.5787 11.8807C61.6017 11.8996 61.6247 11.9186 61.6484 11.9381C61.8132 12.0768 61.9495 12.2335 62.0867 12.4001C62.103 12.419 62.1193 12.4379 62.136 12.4574C62.3491 12.7061 62.5255 12.9782 62.7036 13.2536C62.738 13.3061 62.738 13.3061 62.7731 13.3598C63.0071 13.7425 63.1601 14.1707 63.3206 14.5893C63.3318 14.6179 63.343 14.6465 63.3545 14.676C63.7633 15.7353 63.8307 16.9576 63.9686 18.0782C63.9877 18.2322 64.0071 18.3861 64.0265 18.54C64.0455 18.6913 64.0644 18.8426 64.0833 18.9939C64.0921 19.0647 64.101 19.1355 64.1098 19.2062C64.161 19.615 64.2055 20.0237 64.2397 20.4344C64.268 20.7727 64.3135 21.1079 64.3612 21.444C64.4819 22.3443 64.4819 22.3443 64.3299 22.5762C64.1419 22.7641 63.9854 22.8304 63.7261 22.8326C63.6914 22.833 63.6568 22.8333 63.6211 22.8337C63.5652 22.8339 63.5652 22.8339 63.5082 22.8342C63.4697 22.8344 63.4311 22.8346 63.3913 22.8348C63.3097 22.8351 63.2281 22.8354 63.1465 22.8355C63.0221 22.8359 62.8978 22.837 62.7735 22.8382C62.6941 22.8385 62.6147 22.8386 62.5352 22.8388C62.4983 22.8393 62.4613 22.8397 62.4233 22.8402C62.1772 22.8394 61.96 22.8173 61.7593 22.6565C61.5953 22.4345 61.566 22.2092 61.5424 21.9361C61.4005 21.9361 61.3589 21.9851 61.2475 22.0729C60.929 22.315 60.6092 22.4683 60.2359 22.604C60.2082 22.6142 60.1805 22.6245 60.1519 22.6351C60.0584 22.6694 59.9646 22.7029 59.8708 22.7362C59.8424 22.7466 59.814 22.757 59.7847 22.7678C59.1649 22.9829 58.5532 23.0372 57.9019 23.0335C57.7755 23.033 57.6493 23.0343 57.5229 23.0357C56.7116 23.0386 55.9809 22.8682 55.228 22.5669C55.1889 22.5515 55.1889 22.5515 55.149 22.5359C54.766 22.3834 54.4353 22.1822 54.103 21.9361C54.0827 21.9214 54.0625 21.9067 54.0416 21.8916C52.7582 20.9567 52.1068 19.589 51.8167 18.0401C51.8086 17.9984 51.8086 17.9984 51.8004 17.9558C51.6529 17.1643 51.7031 16.2662 51.853 15.4799C51.8633 15.425 51.8633 15.425 51.8737 15.369C52.1082 14.1542 52.66 13.1122 53.4861 12.2146C53.5207 12.1749 53.5207 12.1749 53.5561 12.1345C55.413 10.0992 59.1031 9.89134 61.2158 11.5838ZM55.736 14.107C55.7036 14.1329 55.6713 14.1589 55.6379 14.1857C55.1248 14.6243 54.814 15.2736 54.6473 15.9251C54.6396 15.9548 54.6318 15.9845 54.6238 16.0151C54.3964 16.9635 54.5819 17.9119 55.0611 18.7412C55.4375 19.3646 56.0775 19.8077 56.768 19.9835C57.6449 20.1915 58.6878 20.1886 59.4814 19.7057C59.6446 19.5928 59.7961 19.4699 59.9456 19.3388C59.9678 19.3214 59.9901 19.304 60.013 19.2861C60.5265 18.8764 60.8556 18.1521 60.9517 17.5022C61.0583 16.5159 60.8898 15.4496 60.2994 14.638C60.2551 14.5838 60.2096 14.5305 60.1634 14.478C60.1347 14.4453 60.106 14.4125 60.0765 14.3787C59.5161 13.7723 58.7877 13.4667 57.9718 13.4311C57.1709 13.4084 56.367 13.5847 55.736 14.107Z" fill="#001926"/>
<path d="M79.7058 11.0075C79.7583 11.007 79.7583 11.007 79.8118 11.0065C79.8492 11.0065 79.8866 11.0065 79.9251 11.0066C79.964 11.0064 80.0028 11.0063 80.0428 11.0061C80.1249 11.0059 80.2069 11.0059 80.289 11.006C80.4141 11.0061 80.5393 11.0053 80.6644 11.0043C80.7443 11.0042 80.8241 11.0042 80.904 11.0043C80.9599 11.0038 80.9599 11.0038 81.0168 11.0032C81.2817 11.005 81.4617 11.0368 81.6698 11.2136C81.8232 11.3987 81.8752 11.5493 81.8751 11.7899C81.8753 11.8272 81.8753 11.8272 81.8755 11.8653C81.8758 11.9482 81.8754 12.031 81.875 12.1139C81.8751 12.1735 81.8752 12.2332 81.8754 12.2928C81.8757 12.4211 81.8757 12.5494 81.8754 12.6776C81.875 12.8811 81.8754 13.0845 81.876 13.288C81.8773 13.7937 81.8775 14.2994 81.8774 14.8051C81.8774 15.1975 81.8777 15.5899 81.8789 15.9824C81.8795 16.184 81.8795 16.3855 81.8789 16.5871C81.8787 16.7135 81.8791 16.84 81.8796 16.9664C81.8797 17.0243 81.8796 17.0822 81.8793 17.14C81.876 17.6552 81.9282 18.2097 82.181 18.6677C82.1936 18.6917 82.2062 18.7156 82.2191 18.7403C82.5836 19.4161 83.147 19.9302 83.8786 20.1613C84.2812 20.281 84.6661 20.3238 85.0857 20.3227C85.1523 20.3236 85.1523 20.3236 85.2203 20.3245C86.0235 20.3249 86.8064 20.055 87.3913 19.4863C88.0809 18.7448 88.2659 17.8256 88.2565 16.8388C88.2563 16.7815 88.256 16.7242 88.2559 16.6668C88.2554 16.5447 88.2547 16.4225 88.2538 16.3003C88.2525 16.1068 88.2518 15.9134 88.2512 15.7199C88.2494 15.1702 88.2468 14.6205 88.2436 14.0708C88.2418 13.7662 88.2405 13.4617 88.2398 13.1571C88.2393 12.965 88.2382 12.773 88.2366 12.5809C88.2357 12.4613 88.2355 12.3417 88.2354 12.2222C88.2352 12.167 88.2348 12.1118 88.2341 12.0567C88.2273 11.4838 88.2273 11.4838 88.3966 11.2389C88.5755 11.0701 88.734 11.014 88.9777 11.0111C89.0133 11.0107 89.0489 11.0102 89.0856 11.0097C89.143 11.0093 89.143 11.0093 89.2015 11.0089C89.2609 11.0084 89.2609 11.0084 89.3216 11.008C89.4054 11.0075 89.4892 11.0071 89.5731 11.0068C89.7008 11.0061 89.8285 11.0045 89.9562 11.0029C90.0378 11.0025 90.1194 11.0022 90.2009 11.002C90.2389 11.0013 90.2769 11.0007 90.316 11C90.542 11.0007 90.7336 11.0199 90.9157 11.1652C91.0784 11.3324 91.1211 11.4223 91.1212 11.6641C91.1214 11.6913 91.1217 11.7185 91.122 11.7465C91.1226 11.8373 91.122 11.928 91.1213 12.0188C91.1215 12.0841 91.1217 12.1493 91.1221 12.2146C91.1228 12.3918 91.1223 12.569 91.1216 12.7462C91.121 12.9323 91.1213 13.1184 91.1215 13.3046C91.1216 13.6177 91.1211 13.9309 91.12 14.244C91.1189 14.6042 91.1189 14.9644 91.1195 15.3247C91.1201 15.6726 91.1198 16.0205 91.1192 16.3685C91.119 16.5158 91.119 16.663 91.1193 16.8103C91.1207 17.7819 91.0792 18.6564 90.7332 19.5736C90.7222 19.6028 90.7113 19.632 90.7001 19.662C90.5451 20.07 90.3641 20.4354 90.1125 20.7906C90.0961 20.8142 90.0798 20.8378 90.0629 20.8621C89.7393 21.3266 89.3768 21.7605 88.9077 22.0813C88.8721 22.1069 88.8366 22.1326 88.7999 22.159C88.679 22.2459 88.5564 22.3298 88.4331 22.4132C88.385 22.4464 88.385 22.4464 88.336 22.4802C87.5666 22.9736 86.5047 23.2718 85.5947 23.2738C85.5548 23.2741 85.515 23.2743 85.474 23.2746C85.39 23.275 85.3061 23.2751 85.2222 23.2751C85.0963 23.2753 84.9704 23.2766 84.8445 23.278C84.183 23.2815 83.5779 23.1968 82.9522 22.9756C82.9156 22.9629 82.879 22.9502 82.8413 22.9371C82.2646 22.7326 81.7674 22.4887 81.2774 22.1182C81.2449 22.0944 81.2125 22.0707 81.1791 22.0462C80.6601 21.6488 80.2438 21.1549 79.89 20.6062C79.865 20.5678 79.865 20.5678 79.8394 20.5286C79.3933 19.8306 79.175 18.987 79.0503 18.1722C79.0441 18.1336 79.038 18.095 79.0316 18.0552C79.0139 17.9148 79.009 17.7807 79.0087 17.6392C79.0086 17.6128 79.0085 17.5863 79.0084 17.5591C79.008 17.4711 79.008 17.3831 79.0079 17.2952C79.0078 17.2319 79.0076 17.1685 79.0074 17.1052C79.0069 16.9337 79.0067 16.7622 79.0065 16.5907C79.0064 16.4835 79.0062 16.3763 79.0061 16.2692C79.0056 15.9337 79.0052 15.5983 79.0051 15.2629C79.0049 14.8758 79.0043 14.4887 79.0032 14.1016C79.0024 13.8022 79.0021 13.5028 79.002 13.2033C79.002 13.0246 79.0018 12.8458 79.0011 12.667C79.0005 12.499 79.0004 12.331 79.0008 12.163C79.0008 12.1014 79.0006 12.0397 79.0003 11.9781C78.9998 11.8939 79 11.8098 79.0004 11.7257C79.0003 11.6786 79.0003 11.6315 79.0002 11.583C79.0212 11.3937 79.0928 11.3047 79.2283 11.1767C79.3855 11.0592 79.5105 11.0086 79.7058 11.0075Z" fill="#001A26"/>
<path d="M74.9163 11.6061C74.9517 11.6346 74.987 11.6631 75.0235 11.6924C75.2265 11.8566 75.4007 12.0242 75.5618 12.2312C75.5928 12.2699 75.6238 12.3086 75.6547 12.3472C75.875 12.6255 76.0718 12.9109 76.2432 13.224C76.2645 13.2627 76.2645 13.2627 76.2862 13.3022C77.0815 14.765 77.3321 16.4467 77.4773 18.0963C77.5144 18.5155 77.5602 18.9325 77.6149 19.3496C77.628 19.4497 77.641 19.5498 77.6538 19.6499C77.6903 19.9339 77.7271 20.2179 77.7642 20.5018C77.787 20.6772 77.8096 20.8526 77.8321 21.0281C77.8406 21.0941 77.8492 21.1602 77.8579 21.2262C77.9809 22.1584 77.9809 22.1584 77.8683 22.398C77.716 22.5667 77.5682 22.6951 77.3388 22.7201C77.2927 22.7203 77.2927 22.7203 77.2457 22.7206C77.2106 22.721 77.1756 22.7213 77.1394 22.7217C77.1019 22.7216 77.0644 22.7216 77.0258 22.7216C76.9673 22.7218 76.9673 22.7218 76.9077 22.722C76.8254 22.7223 76.7431 22.7223 76.6609 22.7221C76.5353 22.722 76.4098 22.7229 76.2843 22.7238C76.2042 22.7239 76.1241 22.7239 76.044 22.7239C76.0067 22.7242 75.9693 22.7245 75.9308 22.7249C75.6686 22.7232 75.4919 22.692 75.2839 22.5175C75.024 22.1918 75.0363 21.7548 75.0013 21.3518C74.9596 20.8767 74.9 20.4046 74.8379 19.9318C74.8269 19.8472 74.8159 19.7626 74.8049 19.678C74.7763 19.4574 74.7475 19.2368 74.7187 19.0162C74.6726 18.6631 74.6266 18.31 74.5807 17.9568C74.5649 17.8349 74.5489 17.7131 74.5329 17.5913C74.4839 17.2151 74.4371 16.8393 74.4023 16.4614C74.3817 16.2454 74.3409 16.0436 74.2775 15.8369C74.268 15.8045 74.2585 15.7721 74.2486 15.7388C74.1267 15.3331 73.9585 14.965 73.7605 14.5936C73.697 14.4741 73.697 14.4741 73.6593 14.3868C73.6264 14.314 73.6264 14.314 73.5177 14.2903C73.4661 14.2314 73.4661 14.2314 73.4101 14.157C73.0581 13.7341 72.4694 13.503 71.9397 13.4446C71.1408 13.3878 70.3019 13.5152 69.6804 14.0697C69.0301 14.6704 68.7104 15.5368 68.6404 16.4229C68.6226 16.8373 68.626 17.2523 68.6269 17.667C68.6271 17.8283 68.6266 17.9896 68.6261 18.1509C68.6249 18.6288 68.6246 19.1068 68.6247 19.5847C68.6248 19.9578 68.6245 20.3309 68.6233 20.7041C68.6227 20.8956 68.6227 21.087 68.6233 21.2785C68.6235 21.3974 68.6231 21.5162 68.6226 21.635C68.6224 21.69 68.6226 21.745 68.6229 21.8C68.6234 21.8752 68.6229 21.9503 68.6224 22.0255C68.6224 22.0675 68.6224 22.1095 68.6224 22.1528C68.5854 22.3932 68.4287 22.5371 68.2459 22.6737C68.1393 22.7101 68.0406 22.7155 67.9288 22.7164C67.8945 22.7168 67.8601 22.7171 67.8247 22.7175C67.7693 22.7177 67.7693 22.7177 67.7128 22.718C67.6555 22.7183 67.6555 22.7183 67.5971 22.7186C67.5162 22.719 67.4354 22.7192 67.3546 22.7193C67.2314 22.7197 67.1081 22.7208 66.9849 22.722C66.9063 22.7222 66.8276 22.7224 66.749 22.7226C66.694 22.7233 66.694 22.7233 66.6378 22.7239C66.3998 22.7232 66.2085 22.705 66.0238 22.5357C66.0071 22.5138 65.9903 22.4918 65.9731 22.4692C65.9558 22.4472 65.9385 22.4251 65.9207 22.4024C65.8327 22.2768 65.8384 22.1861 65.838 22.0325C65.8379 22.0079 65.8378 21.9833 65.8377 21.958C65.8374 21.8752 65.8374 21.7923 65.8373 21.7095C65.8371 21.6502 65.837 21.591 65.8368 21.5317C65.8363 21.3703 65.8361 21.2088 65.8359 21.0473C65.8358 20.9461 65.8357 20.845 65.8355 20.7438C65.835 20.4266 65.8347 20.1094 65.8345 19.7922C65.8344 19.4275 65.8337 19.0629 65.8327 18.6982C65.8319 18.4156 65.8316 18.133 65.8315 17.8504C65.8315 17.6821 65.8313 17.5137 65.8306 17.3453C65.8258 16.0206 65.8258 16.0206 65.9368 15.431C65.9516 15.3515 65.9645 15.2717 65.9771 15.1917C66.2157 13.6981 67.0875 12.3372 68.2677 11.4502C68.608 11.203 68.9705 11.0272 69.3576 10.8707C69.388 10.8584 69.4184 10.846 69.4497 10.8333C71.1847 10.146 73.4735 10.3584 74.9163 11.6061Z" fill="#001926"/>
<path d="M40.4968 7.50845C40.5403 7.5081 40.5838 7.50774 40.6286 7.50738C40.6762 7.50755 40.7239 7.50772 40.773 7.50789C40.8242 7.50769 40.8754 7.50743 40.9267 7.50714C41.0675 7.50646 41.2082 7.50648 41.349 7.50661C41.5008 7.50663 41.6527 7.50602 41.8045 7.5055C42.102 7.50458 42.3994 7.50428 42.6969 7.50422C42.9386 7.50416 43.1804 7.50394 43.4221 7.50359C44.1074 7.50262 44.7927 7.50211 45.478 7.50219C45.5334 7.5022 45.5334 7.5022 45.59 7.5022C45.6455 7.50221 45.6455 7.50221 45.7021 7.50222C46.3017 7.50226 46.9014 7.50121 47.5011 7.49965C48.1167 7.49807 48.7323 7.4973 49.3479 7.4974C49.6935 7.49744 50.0392 7.49713 50.3849 7.49595C50.6792 7.49494 50.9734 7.4947 51.2677 7.49545C51.4179 7.49581 51.568 7.49582 51.7182 7.49486C51.8557 7.49399 51.9931 7.49415 52.1306 7.49511C52.2038 7.49536 52.2771 7.49453 52.3503 7.49365C52.589 7.49642 52.7449 7.50677 52.9164 7.68467C53.0937 7.91744 53.0867 8.14975 53.0867 8.43361C53.087 8.47499 53.0873 8.51636 53.0875 8.55899C53.0879 8.64622 53.088 8.73346 53.0879 8.82069C53.0878 8.95368 53.0893 9.08659 53.091 9.21956C53.0911 9.30456 53.0912 9.38956 53.0912 9.47456C53.0921 9.5338 53.0921 9.5338 53.093 9.59424C53.0908 9.84307 53.053 10.0165 52.8886 10.2066C52.7161 10.3431 52.5886 10.395 52.372 10.3948C52.3128 10.3949 52.3128 10.3949 52.2524 10.395C52.1875 10.3948 52.1875 10.3948 52.1212 10.3946C52.0528 10.3946 52.0528 10.3946 51.983 10.3946C51.8579 10.3946 51.7329 10.3944 51.6078 10.3941C51.4771 10.3939 51.3464 10.3939 51.2157 10.3938C50.9682 10.3937 50.7207 10.3934 50.4732 10.3931C50.1915 10.3927 49.9097 10.3924 49.6279 10.3923C49.0483 10.3919 48.4687 10.3912 47.8891 10.3904C47.8892 10.4154 47.8892 10.4404 47.8893 10.4662C47.8933 11.9488 47.8965 13.4314 47.8983 14.914C47.8986 15.092 47.8988 15.27 47.899 15.448C47.8991 15.5012 47.8991 15.5012 47.8992 15.5554C47.9 16.1293 47.9014 16.7031 47.9031 17.277C47.9048 17.8658 47.9058 18.4546 47.9061 19.0434C47.9064 19.4067 47.9072 19.77 47.9086 20.1334C47.9096 20.3825 47.9099 20.6316 47.9096 20.8808C47.9095 21.0245 47.9097 21.1682 47.9107 21.312C47.9116 21.4437 47.9116 21.5753 47.911 21.707C47.9109 21.7771 47.9117 21.8471 47.9125 21.9171C47.9102 22.1766 47.8826 22.3625 47.7079 22.5601C47.5477 22.6831 47.4012 22.7113 47.2038 22.7136C47.1684 22.7141 47.1331 22.7146 47.0967 22.7151C47.0588 22.7153 47.0208 22.7156 46.9817 22.7159C46.9424 22.7162 46.9031 22.7165 46.8625 22.7168C46.7794 22.7173 46.6962 22.7177 46.613 22.718C46.4862 22.7186 46.3595 22.7202 46.2328 22.7218C46.1518 22.7222 46.0709 22.7225 45.9899 22.7228C45.9523 22.7234 45.9146 22.7241 45.8758 22.7247C45.6466 22.724 45.4711 22.6955 45.2806 22.5601C45.1242 22.3929 45.0542 22.2566 45.0544 22.0262C45.0542 21.9846 45.0541 21.9431 45.0539 21.9003C45.0541 21.8547 45.0543 21.8091 45.0546 21.762C45.0545 21.7136 45.0544 21.6651 45.0544 21.6152C45.0542 21.4805 45.0545 21.3459 45.0549 21.2112C45.0552 21.0661 45.0551 20.9209 45.055 20.7757C45.055 20.5242 45.0552 20.2727 45.0556 20.0211C45.0562 19.6574 45.0564 19.2938 45.0565 18.9301C45.0566 18.3401 45.0571 17.75 45.0578 17.16C45.0585 16.5868 45.059 16.0136 45.0593 15.4404C45.0593 15.4051 45.0593 15.3697 45.0594 15.3334C45.0595 15.1561 45.0595 14.9789 45.0596 14.8017C45.0604 13.3313 45.0617 11.8609 45.0633 10.3904C45.0394 10.3905 45.0155 10.3906 44.9909 10.3907C44.4094 10.3932 43.828 10.395 43.2465 10.3961C42.9653 10.3967 42.6841 10.3975 42.4029 10.3987C42.1578 10.3998 41.9127 10.4005 41.6676 10.4008C41.5378 10.4009 41.4081 10.4013 41.2783 10.4021C41.1334 10.403 40.9885 10.403 40.8435 10.4029C40.7791 10.4035 40.7791 10.4035 40.7135 10.4041C40.4443 10.4031 40.2778 10.3773 40.0728 10.1882C39.9478 10.0472 39.9098 9.97219 39.9078 9.78517C39.9072 9.74405 39.9066 9.70293 39.906 9.66057C39.9058 9.61611 39.9056 9.57164 39.9054 9.52583C39.9051 9.48008 39.9048 9.43433 39.9044 9.3872C39.9039 9.29027 39.9036 9.19336 39.9034 9.09643C39.9033 8.99728 39.9025 8.89817 39.9012 8.79903C39.8995 8.65601 39.8989 8.51303 39.8986 8.36999C39.8979 8.32582 39.8972 8.28166 39.8965 8.23615C39.8979 7.97255 39.9167 7.82528 40.1 7.63294C40.2364 7.53338 40.3297 7.5088 40.4968 7.50845Z" fill="#001A27"/>
</svg>
